<?xml version="1.0" encoding="UTF-8"?>
<!DOCTYPE svg PUBLIC "-//W3C//DTD SVG 1.1//EN" "http://www.w3.org/Graphics/SVG/1.1/DTD/svg11.dtd">
<!-- Creator: CorelDRAW 2020 (64-Bit) -->
<svg xmlns="http://www.w3.org/2000/svg" xml:space="preserve" width="500px" height="500px" version="1.1" shape-rendering="geometricPrecision" text-rendering="geometricPrecision" image-rendering="optimizeQuality" fill-rule="evenodd" clip-rule="evenodd"
viewBox="0 0 500 500"
 xmlns:xlink="http://www.w3.org/1999/xlink"
 xmlns:xodm="http://www.corel.com/coreldraw/odm/2003">
 <g id="Слой_x0020_1">
  <metadata id="CorelCorpID_0Corel-Layer"/>
  <g id="_1167936575328">
   <g>
    <path fill="#FF2234" fill-opacity="0.101961" d="M118.58 0.11c145.35,-2.02 271.55,59.98 332.83,138.53 22.95,29.41 64.03,71.05 40.92,123.95 -22.13,50.63 -90.46,67.79 -143.75,89.57 -60.08,25.34 -120.17,50.69 -180.24,76.03 -34.97,19.64 -65.77,45.94 -106.15,60.42 -21.01,3.81 -42.02,7.63 -63.03,11.45 0,-159.34 0,-318.73 0,-478.08 0.73,0 1.47,0 2.21,0 25.06,-6.25 50.13,-12.5 75.19,-18.75 14.01,-1.04 28.02,-2.08 42.02,-3.12z"/>
   </g>
  </g>
 </g>
</svg>
